<svg fill="none" height="336" viewBox="0 0 336 336" width="336" xmlns="http://www.w3.org/2000/svg" xmlns:xlink="http://www.w3.org/1999/xlink"><linearGradient id="a" gradientUnits="userSpaceOnUse" x1="0" x2="336" y1="0" y2="336"><stop offset="0" stop-color="#ffaf00"/><stop offset="1" stop-color="#f112d9"/></linearGradient><path d="m0 0h336v336h-336z" fill="url(#a)"/><path d="m232.799 99.1968h-50.188c-.413 0-.743.3301-.743.7428v32.9364c0 .413.247.66.66.743 1.899.247 4.953.413 7.595.496 1.32 0 2.476.082 3.467.082h1.237c.413 0 .744-.331.744-.743v-19.811c0-.413.33-.743.743-.743h22.783c.413 0 .743.33.743.743v108.714c0 .413-.33.743-.743.743h-23.031s0 0-.082 0c-.331 0-.661-.247-.661-.577 0-.083 0-.083 0-.166-1.899-19.399-15.519-35.412-33.431-41.191-4.623-1.485-9.494-2.229-14.446-2.229h-22.701c-.413 0-.743.331-.743.744v12.216c0 .413.33.743.743.743h15.354.578c2.229 0 10.731.083 13.703.66l.412.083c1.073.248 2.064.496 3.055.826 6.356 1.981 12.052 5.861 16.261 11.061 5.036 6.108 7.76 13.786 7.76 21.71v9.08c0 .412.33.743.743.743h50.271c.413 0 .743-.331.743-.743v-136.1204c-.083-.4127-.413-.7428-.826-.7428zm-21.379 42.7592h-15.932s-2.476 0-5.448-.083c-2.971-.082-6.356-.247-8.255-.577l-.247-.083-.248-.083c-2.972-.66-5.861-1.733-8.585-3.136-4.127-2.146-7.842-5.118-10.813-8.75-4.953-6.109-7.76-13.868-7.76-21.71v-7.5944c0-.4127-.33-.7428-.743-.7428h-50.271c-.413 0-.743.3301-.743.7428v136.1204c0 .412.33.743.743.743h50.271c.413 0 .743-.331.743-.743v-34.505c0-.412-.247-.66-.66-.743-2.311-.33-6.439-.495-9.493-.578h-2.642c-.413 0-.743.33-.743.743v21.297c0 .413-.33.743-.743.743h-22.783c-.412 0-.742-.33-.742-.743v-108.631c0-.413.33-.743.742-.743h23.196c.33 0 .66.247.743.577 2.064 16.51 12.465 30.46 26.91 37.394 4.21 2.064 8.833 3.467 13.621 4.21 2.311.33 4.788.578 7.181.578h22.701c.412 0 .743-.33.743-.743v-12.217c0-.413-.331-.743-.743-.743z" fill="#fff"/></svg>